<svg width="661" height="117" viewBox="0 0 661 117" fill="none" xmlns="http://www.w3.org/2000/svg">
<path d="M111.152 1.92799C113.168 1.16 110.672 0.103994 109.52 0.487995C88.688 6.824 67.952 12.872 46.64 17.288C40.88 18.44 35.216 19.496 29.552 20.456C28.592 19.88 27.632 19.4 26.576 18.92C21.872 16.808 16.592 15.944 11.408 16.328C8.24 16.52 0.0799999 17.384 0.944 22.376C1.808 26.792 8.912 25.16 11.696 24.776C17.264 24.008 22.736 23.24 28.208 22.376C34.832 26.792 39.152 34.088 40.688 41.96C40.4 46.088 40.016 50.12 39.728 54.152C38.768 65.48 37.712 76.808 37.04 88.232C36.944 88.808 37.616 89.192 38.096 89.48C39.92 90.536 43.376 90.728 44.144 88.232C44.624 86.792 44.336 84.776 44.432 83.24C44.528 81.608 44.624 79.976 44.72 78.344C45.008 71.912 45.392 65.48 45.68 59.048C46.064 52.712 46.352 46.28 46.64 39.848C46.928 33.32 47.408 26.696 46.928 20.168C46.928 19.688 46.544 19.304 45.968 19.208C53.648 17.672 61.328 16.04 69.008 14.216C83.216 10.76 97.424 6.92 111.152 1.92799ZM15.152 22.76C12.656 23.144 10.064 23.528 7.472 23.72C6.032 23.912 3.92 23.912 4.016 21.704C4.016 19.976 5.744 19.112 7.28 18.632C12.08 17.192 17.552 17.672 22.256 19.304C23.6 19.784 24.944 20.36 26.192 21.032C22.544 21.704 18.896 22.28 15.152 22.76ZM43.184 20.168C42.224 24.872 41.84 29.768 41.36 34.568C39.44 29.48 35.984 24.968 31.472 21.8C35.504 21.128 39.44 20.456 43.472 19.688C43.28 19.784 43.184 19.976 43.184 20.168ZM139.231 64.136C136.927 64.904 134.815 66.056 132.607 67.016C130.111 68.072 127.423 69.032 124.831 69.8C118.495 71.624 112.062 72.872 105.535 73.544C99.5825 74.216 93.1505 74.504 87.3905 72.872C84.9905 72.2 82.3985 71.144 80.7665 69.128C79.1345 67.016 77.8865 63.848 75.3905 62.6C73.8545 61.736 71.8385 61.64 70.0145 61.832C69.5345 61.832 69.0545 62.024 68.4785 62.216C69.8225 60.68 70.1105 58.568 67.9985 57.128C65.5025 55.4 60.9905 56.36 59.7425 59.24C57.7265 64.136 63.3905 65.96 67.1345 65.672C67.9985 65.576 68.8625 65.384 69.7265 65.288C70.2065 65.192 70.6865 65.096 71.1665 65C71.1665 65 71.1665 65 71.2625 65C71.4545 65.288 72.0305 65.864 71.9345 65.864C72.2225 66.152 72.5105 66.536 72.7025 66.824C73.2785 67.688 73.8545 68.456 74.5265 69.224C79.1345 74.696 87.8705 75.752 94.4945 76.04C102.943 76.424 111.391 75.272 119.551 73.448C123.967 72.488 128.287 71.336 132.415 69.704C135.103 68.744 139.519 67.496 141.055 64.808C141.535 64.04 139.519 64.04 139.231 64.136ZM65.4065 62.408C64.2545 61.736 63.6785 59.336 64.5425 58.376C65.5025 57.128 66.6545 58.76 66.7505 59.912C66.8465 60.872 66.2705 61.928 65.4065 62.408ZM71.4545 64.904C71.6465 64.904 71.6465 65 71.4545 64.904V64.904ZM221.243 64.712C217.211 66.536 213.467 68.36 209.243 69.704C203.867 71.432 198.395 72.776 192.827 73.448C187.931 74.12 182.843 74.408 177.947 73.352C176.411 73.064 174.875 72.68 173.531 71.72C171.035 69.896 169.499 66.344 170.555 63.368C171.707 60.392 163.739 59.816 162.875 62.312C162.779 62.504 162.683 62.792 162.587 62.984C159.035 61.352 155.003 60.584 151.067 60.776C147.323 60.968 138.779 62.12 137.915 66.824C136.955 72.2 146.267 72.776 149.531 72.68C154.331 72.584 158.939 71.432 163.163 69.32C164.411 71.912 166.715 73.928 169.499 75.176C173.627 76.904 178.139 77.192 182.555 77C192.443 76.52 202.619 74.216 211.931 70.856C215.291 69.608 220.379 68.264 222.779 65.384C223.451 64.616 221.627 64.616 221.243 64.712ZM150.779 69.032C148.955 69.32 139.547 70.76 141.947 66.344C143.675 63.08 149.915 62.504 153.083 62.6C155.771 62.696 158.363 63.368 160.763 64.424C157.787 66.632 154.331 68.264 150.779 69.032ZM278.609 7.68799C277.457 11.912 277.169 16.328 276.305 20.648C275.345 25.448 274.289 30.248 272.945 35.048C270.545 44.168 267.569 53.192 264.305 62.024C261.713 68.936 258.737 75.752 255.089 82.184C254.513 83.336 253.841 84.488 253.073 85.544C250.097 82.664 247.697 79.016 245.489 75.56C241.745 69.8 238.577 63.656 235.697 57.416C242.033 46.952 244.913 34.568 244.625 22.376C244.433 17.768 242.705 11.144 237.713 9.512C234.161 8.36 230.321 10.184 227.633 12.488C217.361 21.512 221.489 38.696 225.233 49.736C227.825 57.224 231.185 64.328 235.217 71.144C238.193 76.424 241.649 81.896 246.065 86.024C247.793 87.56 248.849 88.616 251.057 89.288C253.169 89.96 255.473 89.768 257.105 88.232C258.449 86.888 259.601 84.584 260.657 82.664C262.289 79.4 263.729 76.04 265.073 72.68C272.561 54.056 279.089 34.472 281.969 14.504C282.353 12.2 282.545 9.992 282.353 7.68799C282.257 6.248 278.897 6.44 278.609 7.68799ZM227.441 19.88C228.113 17.288 229.457 14.792 231.665 13.064C233.009 11.912 235.025 10.568 236.657 11.72C239.057 13.448 240.401 16.904 240.881 19.688C241.937 26.312 240.881 33.8 239.537 40.328C238.481 45.416 236.945 50.408 234.641 55.016C232.049 49.352 229.841 43.4 228.401 37.352C227.057 31.688 225.905 25.64 227.441 19.88ZM254.225 86.6C254.225 86.6 254.225 86.6 254.225 86.504C253.937 86.312 254.705 86.888 254.225 86.6ZM254.609 86.792C254.609 86.792 254.609 86.888 254.417 86.696H254.321C254.417 86.696 254.417 86.696 254.417 86.696C254.417 86.6 254.513 86.696 254.609 86.696C255.089 86.792 254.801 86.792 254.609 86.792ZM347.721 64.232C346.185 64.232 344.745 64.52 343.689 64.904C331.401 68.456 313.641 72.488 300.777 72.296C296.841 72.296 287.529 72.104 284.265 68.072C286.569 67.592 288.681 66.728 290.505 65.576C292.905 64.04 294.633 61.16 291.945 59.048C287.529 55.496 276.873 57.8 276.009 64.04C275.529 67.88 278.985 70.856 282.153 72.2C285.993 73.736 290.217 74.504 294.249 74.792C302.601 75.464 311.145 74.696 319.401 73.352C325.545 72.296 340.713 67.784 347.817 65.48C348.393 65.288 348.393 64.328 347.721 64.232ZM283.209 64.424C283.305 62.792 285.609 59.432 287.625 60.68C289.833 62.12 286.569 64.328 285.513 64.808C284.841 65.192 284.073 65.48 283.305 65.672C283.209 65.288 283.209 64.904 283.209 64.424ZM413.363 64.52C403.283 68.936 392.051 70.856 381.203 71.912C376.403 72.392 371.411 72.872 366.515 72.296C365.267 72.2 363.731 71.912 362.963 71.528C362.579 71.336 362.675 71.432 362.483 71.144C362.195 70.28 361.811 68.552 361.235 67.496C359.891 64.904 357.779 62.504 354.611 63.176C352.979 63.464 351.923 64.328 351.251 65.48C351.155 64.424 350.771 63.464 349.715 62.792C349.235 62.408 348.275 62.504 347.699 62.792C346.163 63.752 346.163 65.384 346.067 67.112C345.875 68.936 345.875 70.76 345.875 72.584C345.779 74.6 351.635 74.696 351.635 72.584C351.635 72.392 351.635 72.104 351.635 71.912C351.635 71.816 351.635 71.816 351.731 71.72C352.211 69.992 352.499 67.88 353.459 66.344C354.035 65.384 354.995 64.232 356.147 65.096C356.627 65.48 357.107 66.44 357.299 67.112C357.875 68.936 357.011 71.24 358.547 72.68C360.755 74.792 365.075 74.696 367.955 74.792C378.611 75.08 389.555 73.352 400.019 70.952C405.203 69.704 410.675 68.36 415.283 65.576C416.723 64.712 414.035 64.232 413.363 64.52ZM468.093 35.144C453.981 35.048 439.773 35.72 425.661 36.968C423.741 37.064 421.821 37.256 419.901 37.448C420.189 33.512 420.381 29.672 420.573 25.736C420.861 21.512 421.437 16.904 420.957 12.68C420.765 11.432 417.981 11.624 417.693 12.68C416.733 16.712 416.733 21.128 416.349 25.256C416.061 29.48 415.773 33.704 415.389 37.832C415.389 37.928 415.389 37.928 415.389 37.928C411.741 38.312 408.093 38.792 404.541 39.272C401.181 39.752 397.821 40.232 394.461 40.808C391.101 41.288 387.453 41.576 384.285 42.728C383.517 43.016 384.189 43.496 384.669 43.496C388.029 43.496 391.485 42.728 394.749 42.344C398.205 41.864 401.565 41.48 405.021 41.096C408.381 40.712 411.837 40.328 415.293 40.04C414.717 47.816 414.141 55.688 413.565 63.464C412.989 71.912 412.413 80.264 411.837 88.712C411.261 97.16 410.301 105.8 410.205 114.344C410.205 115.784 414.813 116.264 415.005 114.344C415.965 105.992 416.157 97.544 416.733 89.096C417.213 80.552 417.789 72.008 418.365 63.464C418.845 55.496 419.325 47.624 419.805 39.656C421.821 39.464 423.933 39.272 425.949 39.176C439.965 38.12 454.077 37.64 468.093 37.736C468.861 37.736 470.685 37.544 470.685 36.488C470.685 35.336 468.861 35.144 468.093 35.144ZM514.206 63.944C505.182 67.784 494.91 69.128 485.31 70.28C477.918 71.24 454.59 74.792 456.798 61.352C457.182 58.76 449.118 58.28 448.83 61.352C448.638 63.176 449.118 64.808 449.982 66.248C448.83 67.112 447.678 67.976 446.43 68.744C444.51 69.992 441.438 71.912 439.038 71.72C436.734 71.432 435.582 68.84 435.102 66.92C434.526 64.424 435.102 62.024 435.006 59.432C435.006 57.224 428.958 57.032 428.478 58.952C426.654 65.192 430.782 73.256 437.598 73.736C440.958 73.928 444.03 72.68 446.814 71.048C448.35 70.088 449.982 69.128 451.422 67.976C454.206 70.664 458.622 72.2 461.982 72.872C466.206 73.64 470.526 73.448 474.75 73.16C484.926 72.488 495.102 70.76 504.99 68.36C508.542 67.592 512.766 66.824 515.838 64.808C517.086 64.04 514.782 63.656 514.206 63.944ZM589.043 64.136C586.739 64.904 584.627 66.056 582.419 67.016C579.923 68.072 577.235 69.032 574.643 69.8C568.307 71.624 561.875 72.872 555.347 73.544C549.395 74.216 542.963 74.504 537.203 72.872C534.803 72.2 532.211 71.144 530.579 69.128C528.947 67.016 527.699 63.848 525.203 62.6C523.667 61.736 521.651 61.64 519.827 61.832C519.347 61.832 518.867 62.024 518.291 62.216C519.635 60.68 519.923 58.568 517.811 57.128C515.315 55.4 510.803 56.36 509.555 59.24C507.539 64.136 513.203 65.96 516.947 65.672C517.811 65.576 518.675 65.384 519.539 65.288C520.019 65.192 520.499 65.096 520.979 65C520.979 65 520.979 65 521.075 65C521.267 65.288 521.843 65.864 521.747 65.864C522.035 66.152 522.323 66.536 522.515 66.824C523.091 67.688 523.667 68.456 524.339 69.224C528.947 74.696 537.683 75.752 544.307 76.04C552.755 76.424 561.203 75.272 569.363 73.448C573.779 72.488 578.099 71.336 582.227 69.704C584.915 68.744 589.331 67.496 590.867 64.808C591.347 64.04 589.331 64.04 589.043 64.136ZM515.219 62.408C514.067 61.736 513.491 59.336 514.355 58.376C515.315 57.128 516.467 58.76 516.563 59.912C516.659 60.872 516.083 61.928 515.219 62.408ZM521.267 64.904C521.459 64.904 521.459 65 521.267 64.904V64.904ZM659.44 64.232C657.904 64.232 656.464 64.52 655.408 64.904C643.12 68.456 625.36 72.488 612.496 72.296C608.56 72.296 599.248 72.104 595.984 68.072C598.288 67.592 600.4 66.728 602.224 65.576C604.624 64.04 606.352 61.16 603.664 59.048C599.248 55.496 588.591 57.8 587.727 64.04C587.247 67.88 590.704 70.856 593.872 72.2C597.712 73.736 601.936 74.504 605.968 74.792C614.32 75.464 622.864 74.696 631.12 73.352C637.264 72.296 652.432 67.784 659.536 65.48C660.112 65.288 660.112 64.328 659.44 64.232ZM594.928 64.424C595.023 62.792 597.328 59.432 599.344 60.68C601.552 62.12 598.288 64.328 597.232 64.808C596.56 65.192 595.792 65.48 595.023 65.672C594.928 65.288 594.928 64.904 594.928 64.424Z" fill="white"/>
</svg>
